<svg width="161" height="67" xmlns="http://www.w3.org/2000/svg" xmlns:xlink="http://www.w3.org/1999/xlink" xml:space="preserve" overflow="hidden"><defs><clipPath id="clip0"><rect x="554" y="76" width="161" height="67"/></clipPath></defs><g clip-path="url(#clip0)" transform="translate(-554 -76)"><path d="M60.6815 0.61075C61.0322 0.958028 61.3177 1.72204 61.3177 2.22312L61.3177 14.8443C61.3177 15.4991 60.942 16.283 60.416 16.7196L70.9805 16.7196 70.5196 15.3899C70.4996 15.4346 70.4746 15.4991 70.4746 15.5438 70.2742 16.1738 69.8384 16.5261 69.1771 16.5261L63.1461 16.5261 63.126 16.5062C62.7053 16.0697 62.6201 15.4395 62.6201 14.8691L62.6001 5.90924 66.2118 5.90924C66.8729 5.90924 67.6193 6.28132 67.995 6.82208L67.995 4.79298C67.5793 5.35854 67.0032 5.73063 66.2118 5.73063L62.6001 5.73063 62.6001 2.13382C62.6001 1.58809 62.6903 0.933223 63.131 0.521449L63.151 0.501606 69.1572 0.501606C69.8835 0.501606 70.3894 0.982835 70.5196 1.6129L70.9805 0.34781 60.396 0.34781 60.4411 0.39246C60.5312 0.456955 60.6164 0.52145 60.6815 0.61075ZM93.467 7.86392 96.9133 10.8108 97.7449 11.5252 99.3729 12.9442 100.084 14.8691C100.214 15.2411 100.325 15.633 100.325 16.025 100.325 16.2631 100.279 16.5062 100.149 16.7245L102.373 16.7245C101.822 16.3127 101.341 15.6579 101.141 15.0675L95.9566 0.6554 95.8563 0.372616 93.492 7.17432C93.492 7.17432 91.9842 11.6493 91.4132 12.9788 90.8871 14.1993 89.7551 15.4743 87.9818 16.0746 87.6863 16.1738 87.3707 16.2531 87.0301 16.3177 87.0001 16.3226 86.9649 16.3275 86.9349 16.3326 86.8648 16.3425 86.7897 16.3574 86.7195 16.3673 86.3889 16.4119 86.0382 16.4318 85.6725 16.4269 84.6758 16.4169 83.674 16.283 82.7622 16.0398 79.9972 14.8541 78.3941 11.4706 78.3941 8.54359 78.3941 7.16935 78.6797 5.81994 79.2758 4.57469 80.3528 2.39675 82.3565 0.566099 84.9312 0.566099 85.898 0.566099 86.8898 0.719895 87.7714 1.19616 88.7182 1.71708 89.7952 2.67954 89.7952 3.89998 89.7952 3.98927 89.7952 4.07361 89.7752 4.13811L91.6435 3.35426C91.4683 3.2451 91.333 3.11612 91.2278 2.98217 89.5998 1.17136 87.3306 0.412305 84.9112 0.412305 80.4429 0.412305 76.9464 4.11827 76.9464 8.54359 76.9464 12.969 80.4229 16.6749 84.9112 16.6749 85.3921 16.6749 85.8479 16.655 86.2737 16.6104 89.149 16.4169 90.9072 14.6904 91.6085 13.0582 92.0493 12.0263 93.0462 9.13893 93.4819 7.86392L93.467 7.86392ZM93.6773 7.24377 95.4106 2.22808 96.8632 6.15233 96.9283 6.35078 99.2125 12.5423 93.5321 7.66547C93.6223 7.4075 93.6723 7.24873 93.6723 7.24873L93.6773 7.24377ZM158.823 50.0533C158.487 51.1249 157.74 51.7202 156.618 51.7202L146.384 51.7202 146.349 51.6856C145.638 50.9463 145.488 49.8747 145.488 48.9122L145.448 33.7064 151.574 33.7064C152.697 33.7064 153.964 34.3364 154.6 35.2593L154.6 31.8212C153.888 32.7837 152.916 33.4137 151.574 33.4137L145.448 33.4137 145.448 27.3116C145.448 26.3887 145.598 25.2775 146.344 24.573L146.38 24.5382 156.578 24.5382C157.811 24.5382 158.672 25.3519 158.892 26.4235L159.679 24.2753 141.711 24.2753 141.786 24.3497C141.937 24.4589 142.087 24.573 142.196 24.7218 142.792 25.3122 143.279 26.607 143.279 27.4604L143.279 48.8825C143.279 49.9938 142.643 51.3234 141.746 52.0625L159.679 52.0625 158.892 49.8052C158.857 49.8797 158.817 49.9888 158.817 50.0632L158.823 50.0533ZM34.0975 1.54841C34.2979 0.91834 34.7588 0.566099 35.42 0.566099L38.17 0.566099 38.1901 0.585944C38.5408 0.913379 38.8062 1.76174 38.8062 2.21816L38.8062 14.8443C38.8062 15.5636 38.4756 16.2631 37.9045 16.6948L40.855 16.6948C40.2839 16.3226 40.1086 15.4296 40.1086 14.8443L40.1086 2.24296C40.1086 1.67739 40.1987 1.04237 40.6146 0.585944L40.6346 0.566099 43.5199 0.566099C44.1811 0.566099 44.6219 0.938185 44.8172 1.54841 44.8373 1.6129 44.8373 1.67739 44.8624 1.72204L45.3483 0.34781 33.5716 0.34781 34.0574 1.72204C34.0775 1.67739 34.0775 1.6129 34.1025 1.54841L34.0975 1.54841ZM103.195 16.7196 106.165 16.7196C105.569 16.3275 105.394 15.4346 105.394 14.8244L105.394 10.9249 107.593 7.84903 111.465 14.8244C111.64 15.1518 111.796 15.6082 111.796 15.9803 111.796 16.1787 111.776 16.5013 111.595 16.7196L114.566 16.7196C114.456 16.655 114.365 16.6104 114.28 16.5657 113.619 16.149 113.138 15.5388 112.763 14.864L108.314 6.84192 111.816 2.04451C112.387 1.26066 113.203 0.734778 114.105 0.367655L111.881 0.367655C111.881 0.367655 111.901 0.43215 111.926 0.4768 111.971 0.585944 111.991 0.714934 111.991 0.779429 111.991 1.32515 111.726 1.84607 111.44 2.2628L105.389 10.5876 105.389 2.24296C105.389 1.63274 105.564 0.739739 106.135 0.367655L103.185 0.367655C103.736 0.804234 104.112 1.52359 104.112 2.21816L104.112 14.864C104.112 15.5388 103.736 16.283 103.185 16.7146L103.195 16.7196ZM115.938 0.39246C116.028 0.456955 116.114 0.52145 116.179 0.61075 116.529 0.958028 116.815 1.72204 116.815 2.22312L116.815 14.8443C116.815 15.4991 116.439 16.283 115.913 16.7196L126.478 16.7196 126.016 15.3899C125.996 15.4346 125.972 15.4991 125.972 15.5438 125.772 16.1738 125.336 16.5261 124.674 16.5261L118.643 16.5261 118.623 16.5062C118.202 16.0697 118.117 15.4395 118.117 14.8691L118.097 5.90924 121.708 5.90924C122.37 5.90924 123.117 6.28132 123.493 6.82208L123.493 4.79298C123.077 5.35854 122.501 5.73063 121.708 5.73063L118.097 5.73063 118.097 2.13382C118.097 1.58809 118.188 0.933223 118.623 0.521449L118.643 0.501606 124.649 0.501606C125.376 0.501606 125.881 0.982835 126.012 1.6129L126.472 0.34781 115.888 0.34781C115.888 0.34781 115.908 0.367655 115.933 0.39246L115.938 0.39246ZM46.4452 16.7196 48.6694 16.7196C48.2536 16.2383 48.1434 15.4991 48.1434 14.9335L48.1434 5.92908 57.1249 5.92908 57.1049 14.9732C57.1049 15.6032 56.8394 16.2582 56.4236 16.7146L58.6478 16.7146C58.2321 16.2333 58.0968 15.4942 58.0968 14.9285L58.0968 2.11397C58.0968 1.59305 58.227 0.848884 58.6228 0.34781L56.4236 0.34781C56.8394 0.829039 57.1049 1.45911 57.1049 2.09413L57.1249 5.73559 48.1684 5.73559 48.1484 2.11893C48.1484 1.59801 48.2787 0.853846 48.6743 0.352771L46.4503 0.352771C46.866 0.834001 47.1566 1.46407 47.1566 2.09909L47.1566 14.9732C47.1566 15.6032 46.8711 16.2582 46.4503 16.7146L46.4452 16.7196ZM63.0509 26.5971C63.091 26.5227 63.091 26.4135 63.126 26.2995 63.4617 25.2279 64.2481 24.6325 65.3652 24.6325L70.0338 24.6325 70.0688 24.6673C70.6649 25.2229 71.1158 26.6666 71.1158 27.4405L71.1158 48.8626C71.1158 50.0831 70.5548 51.2688 69.5829 52.008L74.5871 52.008C73.6154 51.378 73.3148 49.8599 73.3148 48.8626L73.3148 27.4852C73.3148 26.5227 73.465 25.4511 74.1764 24.6722L74.2165 24.6374 79.1104 24.6374C80.2325 24.6374 80.9789 25.2676 81.3145 26.3044 81.3496 26.4135 81.3496 26.5277 81.3897 26.6021L82.2112 24.2703 62.2243 24.2703 63.0458 26.6021 63.0509 26.5971ZM89.124 24.3398 89.159 24.3051 84.1147 24.3051C85.0464 25.0096 85.6074 26.4135 85.6074 27.4505L85.6074 48.9073C85.6074 50.1675 85.0464 51.3134 84.0747 52.0527L89.154 52.0527C88.0319 51.3482 87.8066 49.9442 87.8066 48.8329L87.8066 27.4852C87.8066 26.3739 88.0319 25.0046 89.1139 24.3398L89.124 24.3398ZM55.9928 24.3398C56.1432 24.449 56.2934 24.563 56.4437 24.712 57.0398 25.3767 57.4906 26.5227 57.4906 27.4505L57.4906 44.8044C57.4906 48.8378 55.1764 51.869 50.9536 51.869 47.923 51.869 45.8793 50.351 44.9425 48.0291 47.382 45.5039 48.8647 42.0362 48.8647 38.2905 48.8647 34.272 47.1316 30.576 44.3414 28.016L44.3414 27.4852C44.3414 26.1506 44.6019 24.9698 45.759 24.2654L40.6396 24.2654C41.2457 24.7218 41.6865 25.4759 41.927 26.2399 39.9884 25.1286 37.7492 24.4886 35.3347 24.4886 27.7508 24.4886 21.8099 30.8537 21.8099 38.2905 21.8099 45.7273 27.7508 52.1271 35.3347 52.1271 38.5557 52.1271 41.4611 50.981 43.7503 49.1057 44.0909 49.5275 44.4666 49.9193 44.8925 50.2419 46.6456 51.5368 48.7396 52.0924 50.9435 52.0924 55.3868 52.0924 59.6847 49.5027 59.6847 44.6556L59.6847 27.4852C59.6847 26.1159 59.9852 24.9698 61.1022 24.2654L55.9077 24.2654C55.9311 24.2886 55.9562 24.3134 55.9829 24.3398L55.9928 24.3398ZM35.3347 51.869C30.9618 51.869 27.6006 48.7237 25.7722 45.0227 24.7252 42.949 24.2393 40.657 24.2393 38.3252 24.2393 35.9935 24.7252 33.7361 25.7722 31.6278 27.6006 27.9267 30.9667 24.7069 35.3347 24.7069 39.7029 24.7069 43.069 27.887 44.9375 31.6278 45.9444 33.7361 46.3952 36.0283 46.3952 38.3252 46.3952 40.6222 45.9444 42.949 44.9375 45.0227 43.069 48.7585 39.7078 51.869 35.3347 51.869ZM134.728 24.3398C134.878 24.449 135.029 24.563 135.179 24.712 135.775 25.3767 136.226 26.5227 136.226 27.4505L136.226 44.8044C136.226 48.8378 133.912 51.869 129.688 51.869 125.466 51.869 123.077 48.8329 123.077 44.7648L123.077 27.4852C123.077 26.1506 123.336 24.9698 124.494 24.2654L119.375 24.2654C120.306 24.9698 120.868 26.3739 120.868 27.4454L120.902 44.869C120.902 46.9031 121.985 49.0114 123.628 50.2319 125.385 51.5268 127.475 52.0824 129.679 52.0824 134.122 52.0824 138.42 49.4927 138.42 44.6457L138.42 27.4852C138.42 26.1159 138.721 24.9698 139.837 24.2654L134.643 24.2654C134.666 24.2886 134.691 24.3134 134.718 24.3398L134.728 24.3398ZM110.042 51.0853C115.012 49.0114 118.448 43.9809 118.448 38.2856 118.448 30.8488 112.547 24.4837 104.923 24.4837 97.299 24.4837 91.3981 30.8488 91.3981 38.2856 91.3981 45.7222 97.299 52.1221 104.923 52.1221 106.08 52.1221 107.202 51.9733 108.249 51.7153 110.829 54.4141 113.589 57.6736 118.263 57.6736 120.842 57.6736 123.978 56.7112 127.976 54.1612 124.765 55.4212 122.184 55.9372 120.021 55.9372 115.167 55.9372 112.437 53.3822 110.048 51.0902L110.042 51.0853ZM103.691 47.4587C102.008 47.4587 100.515 48.1631 99.2075 49.2 100.44 48.4607 101.487 48.1631 102.459 48.1631 104.587 48.1631 106.23 49.6068 107.914 51.3432 106.982 51.6756 105.97 51.8641 104.923 51.8641 100.55 51.8641 97.1888 48.7188 95.3203 45.0178 94.2735 42.9441 93.8276 40.652 93.8276 38.3202 93.8276 35.9885 94.3136 33.7312 95.3203 31.6227 97.1888 27.9217 100.55 24.702 104.923 24.702 109.296 24.702 112.657 27.8821 114.486 31.6227 115.533 33.7312 115.978 36.0233 115.978 38.3202 115.978 43.0581 113.774 48.1234 109.517 50.604 107.874 49.0114 106.155 47.4587 103.691 47.4587ZM11.055 33.5527 10.1935 33.3691 11.0901 33.26C13.5547 32.8878 16.0192 31.7815 16.0192 29.043 16.0192 24.5681 10.2285 24.1959 6.75713 24.1959L0.410424 24.1959C1.30708 24.9004 1.94325 26.3391 1.94325 27.3413L1.94325 48.7982C1.94325 49.8351 1.30708 51.239 0.37536 51.9436L7.43337 51.9436C11.6562 51.9436 16.7355 51.0902 19.0497 47.2056 19.9113 45.7619 20.3222 44.1347 20.3222 42.4678 20.3222 36.8071 16.1394 34.4407 11.0601 33.5527L11.055 33.5527ZM4.10724 27.376C4.10724 26.3788 4.25752 25.1932 5.07904 24.4539L5.1141 24.4191 6.90739 24.4191C9.97306 24.4191 13.9304 24.9352 13.9304 29.0082 13.9304 29.8218 13.7049 30.6008 13.1088 31.2259 11.7263 32.7042 8.88605 33.1855 6.98254 33.1508L4.10724 33.1161 4.10724 27.381 4.10724 27.376ZM6.23616 51.6856 5.1141 51.6856 5.07904 51.6508C4.29258 50.9117 4.10724 49.7259 4.10724 48.7287L4.10724 33.4137 4.25752 33.4137C5.86547 33.4137 7.50851 33.4535 9.15154 33.4881 10.7194 33.5228 13.1489 34.2274 14.4914 35.1154 17.0711 36.8567 17.8926 39.4812 17.8926 42.4776 17.8926 49.6564 12.5529 51.6905 6.23616 51.6905L6.23616 51.6856Z" stroke="#FFFFFF" stroke-width="1.17544" fill="#FFFFFF" transform="matrix(1.00713 0 0 1 554 76)"/><path d="M60.6815 0.61075C61.0322 0.958028 61.3177 1.72204 61.3177 2.22312L61.3177 14.8443C61.3177 15.4991 60.942 16.283 60.416 16.7196L70.9805 16.7196 70.5196 15.3899C70.4996 15.4346 70.4746 15.4991 70.4746 15.5438 70.2742 16.1738 69.8384 16.5261 69.1771 16.5261L63.1461 16.5261 63.126 16.5062C62.7053 16.0697 62.6201 15.4395 62.6201 14.8691L62.6001 5.90924 66.2118 5.90924C66.8729 5.90924 67.6193 6.28132 67.995 6.82208L67.995 4.79298C67.5793 5.35854 67.0032 5.73063 66.2118 5.73063L62.6001 5.73063 62.6001 2.13382C62.6001 1.58809 62.6903 0.933223 63.131 0.521449L63.151 0.501606 69.1572 0.501606C69.8835 0.501606 70.3894 0.982835 70.5196 1.6129L70.9805 0.34781 60.396 0.34781 60.4411 0.39246C60.5312 0.456955 60.6164 0.52145 60.6815 0.61075L60.6815 0.61075ZM93.467 7.86392 96.9133 10.8108 97.7449 11.5252 99.3729 12.9442 100.084 14.8691C100.214 15.2411 100.325 15.633 100.325 16.025 100.325 16.2631 100.279 16.5062 100.149 16.7245L102.373 16.7245C101.822 16.3127 101.341 15.6579 101.141 15.0675L95.9566 0.6554 95.8563 0.372616 93.492 7.17432C93.492 7.17432 91.9842 11.6493 91.4132 12.9788 90.8871 14.1993 89.7551 15.4743 87.9818 16.0746 87.6863 16.1738 87.3707 16.2531 87.0301 16.3177 87.0001 16.3226 86.9649 16.3275 86.9349 16.3326 86.8648 16.3425 86.7897 16.3574 86.7195 16.3673 86.3889 16.4119 86.0382 16.4318 85.6725 16.4269 84.6758 16.4169 83.674 16.283 82.7622 16.0398 79.9972 14.8541 78.3941 11.4706 78.3941 8.54359 78.3941 7.16935 78.6797 5.81994 79.2758 4.57469 80.3528 2.39675 82.3565 0.566099 84.9312 0.566099 85.898 0.566099 86.8898 0.719895 87.7714 1.19616 88.7182 1.71708 89.7952 2.67954 89.7952 3.89998 89.7952 3.98927 89.7952 4.07361 89.7752 4.13811L91.6435 3.35426C91.4683 3.2451 91.333 3.11612 91.2278 2.98217 89.5998 1.17136 87.3306 0.412305 84.9112 0.412305 80.4429 0.412305 76.9464 4.11827 76.9464 8.54359 76.9464 12.969 80.4229 16.6749 84.9112 16.6749 85.3921 16.6749 85.8479 16.655 86.2737 16.6104 89.149 16.4169 90.9072 14.6904 91.6085 13.0582 92.0493 12.0263 93.0462 9.13893 93.4819 7.86392L93.467 7.86392ZM93.6773 7.24377 95.4106 2.22808 96.8632 6.15233 96.9283 6.35078 99.2125 12.5423 93.5321 7.66547C93.6223 7.4075 93.6723 7.24873 93.6723 7.24873L93.6773 7.24377ZM158.823 50.0533C158.487 51.1249 157.74 51.7202 156.618 51.7202L146.384 51.7202 146.349 51.6856C145.638 50.9463 145.488 49.8747 145.488 48.9122L145.448 33.7064 151.574 33.7064C152.697 33.7064 153.964 34.3364 154.6 35.2593L154.6 31.8212C153.888 32.7837 152.916 33.4137 151.574 33.4137L145.448 33.4137 145.448 27.3116C145.448 26.3887 145.598 25.2775 146.344 24.573L146.38 24.5382 156.578 24.5382C157.811 24.5382 158.672 25.3519 158.892 26.4235L159.679 24.2753 141.711 24.2753 141.786 24.3497C141.937 24.4589 142.087 24.573 142.196 24.7218 142.792 25.3122 143.279 26.607 143.279 27.4604L143.279 48.8825C143.279 49.9938 142.643 51.3234 141.746 52.0625L159.679 52.0625 158.892 49.8052C158.857 49.8797 158.817 49.9888 158.817 50.0632L158.823 50.0533ZM34.0975 1.54841C34.2979 0.91834 34.7588 0.566099 35.42 0.566099L38.17 0.566099 38.1901 0.585944C38.5408 0.913379 38.8062 1.76174 38.8062 2.21816L38.8062 14.8443C38.8062 15.5636 38.4756 16.2631 37.9045 16.6948L40.855 16.6948C40.2839 16.3226 40.1086 15.4296 40.1086 14.8443L40.1086 2.24296C40.1086 1.67739 40.1987 1.04237 40.6146 0.585944L40.6346 0.566099 43.5199 0.566099C44.1811 0.566099 44.6219 0.938185 44.8172 1.54841 44.8373 1.6129 44.8373 1.67739 44.8624 1.72204L45.3483 0.34781 33.5716 0.34781 34.0574 1.72204C34.0775 1.67739 34.0775 1.6129 34.1025 1.54841L34.0975 1.54841ZM103.195 16.7196 106.165 16.7196C105.569 16.3275 105.394 15.4346 105.394 14.8244L105.394 10.9249 107.593 7.84903 111.465 14.8244C111.64 15.1518 111.796 15.6082 111.796 15.9803 111.796 16.1787 111.776 16.5013 111.595 16.7196L114.566 16.7196C114.456 16.655 114.365 16.6104 114.28 16.5657 113.619 16.149 113.138 15.5388 112.763 14.864L108.314 6.84192 111.816 2.04451C112.387 1.26066 113.203 0.734778 114.105 0.367655L111.881 0.367655C111.881 0.367655 111.901 0.43215 111.926 0.4768 111.971 0.585944 111.991 0.714934 111.991 0.779429 111.991 1.32515 111.726 1.84607 111.44 2.2628L105.389 10.5876 105.389 2.24296C105.389 1.63274 105.564 0.739739 106.135 0.367655L103.185 0.367655C103.736 0.804234 104.112 1.52359 104.112 2.21816L104.112 14.864C104.112 15.5388 103.736 16.283 103.185 16.7146L103.195 16.7196ZM115.938 0.39246C116.028 0.456955 116.114 0.52145 116.179 0.61075 116.529 0.958028 116.815 1.72204 116.815 2.22312L116.815 14.8443C116.815 15.4991 116.439 16.283 115.913 16.7196L126.478 16.7196 126.016 15.3899C125.996 15.4346 125.972 15.4991 125.972 15.5438 125.772 16.1738 125.336 16.5261 124.674 16.5261L118.643 16.5261 118.623 16.5062C118.202 16.0697 118.117 15.4395 118.117 14.8691L118.097 5.90924 121.708 5.90924C122.37 5.90924 123.117 6.28132 123.493 6.82208L123.493 4.79298C123.077 5.35854 122.501 5.73063 121.708 5.73063L118.097 5.73063 118.097 2.13382C118.097 1.58809 118.188 0.933223 118.623 0.521449L118.643 0.501606 124.649 0.501606C125.376 0.501606 125.881 0.982835 126.012 1.6129L126.472 0.34781 115.888 0.34781C115.888 0.34781 115.908 0.367655 115.933 0.39246L115.938 0.39246ZM46.4452 16.7196 48.6694 16.7196C48.2536 16.2383 48.1434 15.4991 48.1434 14.9335L48.1434 5.92908 57.1249 5.92908 57.1049 14.9732C57.1049 15.6032 56.8394 16.2582 56.4236 16.7146L58.6478 16.7146C58.2321 16.2333 58.0968 15.4942 58.0968 14.9285L58.0968 2.11397C58.0968 1.59305 58.227 0.848884 58.6228 0.34781L56.4236 0.34781C56.8394 0.829039 57.1049 1.45911 57.1049 2.09413L57.1249 5.73559 48.1684 5.73559 48.1484 2.11893C48.1484 1.59801 48.2787 0.853846 48.6744 0.352771L46.4503 0.352771C46.866 0.834001 47.1566 1.46407 47.1566 2.09909L47.1566 14.9732C47.1566 15.6032 46.8711 16.2582 46.4503 16.7146L46.4452 16.7196ZM63.0509 26.5971C63.091 26.5227 63.091 26.4135 63.126 26.2995 63.4617 25.2279 64.2481 24.6325 65.3652 24.6325L70.0338 24.6325 70.0688 24.6673C70.6649 25.2229 71.1158 26.6666 71.1158 27.4405L71.1158 48.8626C71.1158 50.0831 70.5548 51.2688 69.5829 52.008L74.5871 52.008C73.6154 51.378 73.3148 49.8599 73.3148 48.8626L73.3148 27.4852C73.3148 26.5227 73.465 25.4511 74.1764 24.6722L74.2165 24.6374 79.1104 24.6374C80.2325 24.6374 80.9789 25.2676 81.3145 26.3044 81.3496 26.4135 81.3496 26.5277 81.3897 26.6021L82.2112 24.2703 62.2243 24.2703 63.0458 26.6021 63.0509 26.5971ZM89.124 24.3398 89.159 24.3051 84.1147 24.3051C85.0464 25.0096 85.6074 26.4135 85.6074 27.4505L85.6074 48.9073C85.6074 50.1675 85.0464 51.3134 84.0747 52.0527L89.154 52.0527C88.0319 51.3482 87.8066 49.9442 87.8066 48.8329L87.8066 27.4852C87.8066 26.3739 88.0319 25.0046 89.1139 24.3398L89.124 24.3398ZM55.9928 24.3398C56.1432 24.449 56.2934 24.563 56.4437 24.712 57.0398 25.3767 57.4906 26.5227 57.4906 27.4505L57.4906 44.8044C57.4906 48.8378 55.1764 51.869 50.9536 51.869 47.923 51.869 45.8793 50.351 44.9425 48.0292 47.382 45.5039 48.8647 42.0362 48.8647 38.2905 48.8647 34.272 47.1316 30.576 44.3414 28.016L44.3414 27.4852C44.3414 26.1506 44.6019 24.9698 45.759 24.2654L40.6396 24.2654C41.2457 24.7218 41.6865 25.4759 41.927 26.2399 39.9884 25.1286 37.7492 24.4886 35.3347 24.4886 27.7508 24.4886 21.8099 30.8537 21.8099 38.2905 21.8099 45.7273 27.7508 52.1271 35.3347 52.1271 38.5557 52.1271 41.4611 50.981 43.7503 49.1057 44.0909 49.5275 44.4666 49.9193 44.8925 50.2419 46.6456 51.5368 48.7396 52.0924 50.9435 52.0924 55.3868 52.0924 59.6847 49.5027 59.6847 44.6556L59.6847 27.4852C59.6847 26.1159 59.9852 24.9698 61.1022 24.2654L55.9077 24.2654C55.9311 24.2886 55.9562 24.3134 55.9829 24.3398L55.9928 24.3398ZM35.3347 51.869C30.9618 51.869 27.6006 48.7237 25.7722 45.0227 24.7252 42.949 24.2393 40.657 24.2393 38.3252 24.2393 35.9935 24.7252 33.7361 25.7722 31.6278 27.6006 27.9267 30.9667 24.7069 35.3347 24.7069 39.7029 24.7069 43.069 27.887 44.9375 31.6278 45.9444 33.7361 46.3952 36.0283 46.3952 38.3252 46.3952 40.6222 45.9444 42.949 44.9375 45.0227 43.069 48.7585 39.7078 51.869 35.3347 51.869ZM134.728 24.3398C134.878 24.449 135.029 24.563 135.179 24.712 135.775 25.3767 136.226 26.5227 136.226 27.4505L136.226 44.8044C136.226 48.8378 133.912 51.869 129.688 51.869 125.466 51.869 123.077 48.8329 123.077 44.7648L123.077 27.4852C123.077 26.1506 123.336 24.9698 124.494 24.2654L119.375 24.2654C120.306 24.9698 120.868 26.3739 120.868 27.4454L120.902 44.869C120.902 46.9031 121.985 49.0114 123.628 50.2319 125.385 51.5268 127.475 52.0824 129.679 52.0824 134.122 52.0824 138.42 49.4927 138.42 44.6457L138.42 27.4852C138.42 26.1159 138.721 24.9698 139.837 24.2654L134.643 24.2654C134.666 24.2886 134.691 24.3134 134.718 24.3398L134.728 24.3398ZM110.042 51.0853C115.012 49.0114 118.448 43.9809 118.448 38.2856 118.448 30.8488 112.547 24.4837 104.923 24.4837 97.299 24.4837 91.3981 30.8488 91.3981 38.2856 91.3981 45.7222 97.299 52.1221 104.923 52.1221 106.08 52.1221 107.202 51.9733 108.249 51.7153 110.829 54.4141 113.589 57.6736 118.263 57.6736 120.842 57.6736 123.978 56.7112 127.976 54.1612 124.765 55.4212 122.184 55.9372 120.021 55.9372 115.167 55.9372 112.437 53.3822 110.048 51.0902L110.042 51.0853ZM103.691 47.4587C102.008 47.4587 100.515 48.1631 99.2075 49.2 100.44 48.4607 101.487 48.1631 102.459 48.1631 104.587 48.1631 106.23 49.6068 107.914 51.3433 106.982 51.6756 105.97 51.8641 104.923 51.8641 100.55 51.8641 97.1888 48.7188 95.3203 45.0178 94.2735 42.9441 93.8276 40.652 93.8276 38.3202 93.8276 35.9885 94.3136 33.7312 95.3203 31.6227 97.1888 27.9217 100.55 24.702 104.923 24.702 109.296 24.702 112.657 27.8821 114.486 31.6227 115.533 33.7312 115.978 36.0233 115.978 38.3202 115.978 43.0582 113.774 48.1234 109.517 50.604 107.874 49.0114 106.155 47.4587 103.691 47.4587L103.691 47.4587ZM11.055 33.5527 10.1935 33.3691 11.0901 33.26C13.5547 32.8878 16.0192 31.7815 16.0192 29.043 16.0192 24.5681 10.2285 24.1959 6.75713 24.1959L0.410424 24.1959C1.30708 24.9004 1.94325 26.3391 1.94325 27.3413L1.94325 48.7982C1.94325 49.8351 1.30708 51.239 0.37536 51.9436L7.43337 51.9436C11.6562 51.9436 16.7355 51.0902 19.0497 47.2056 19.9113 45.7619 20.3222 44.1347 20.3222 42.4678 20.3222 36.8071 16.1394 34.4407 11.0601 33.5527L11.055 33.5527ZM4.10724 27.376C4.10724 26.3788 4.25752 25.1932 5.07904 24.4539L5.1141 24.4191 6.90739 24.4191C9.97306 24.4191 13.9304 24.9352 13.9304 29.0082 13.9304 29.8218 13.7049 30.6008 13.1088 31.2259 11.7263 32.7042 8.88605 33.1855 6.98254 33.1508L4.10724 33.1161 4.10724 27.381 4.10724 27.376ZM6.23616 51.6856 5.1141 51.6856 5.07904 51.6508C4.29258 50.9117 4.10724 49.7259 4.10724 48.7287L4.10724 33.4137 4.25752 33.4137C5.86547 33.4137 7.50851 33.4535 9.15154 33.4881 10.7194 33.5228 13.1489 34.2274 14.4914 35.1154 17.0711 36.8567 17.8926 39.4812 17.8926 42.4776 17.8926 49.6564 12.5529 51.6905 6.23616 51.6905L6.23616 51.6856Z" stroke="#FFFFFF" stroke-width="0.587719" stroke-miterlimit="10" fill="#FFFFFF" transform="matrix(1.00713 0 0 1 554 76)"/><path d="M22.8625 66.9464 22.8625 63.6126 23.8894 63.6126C24.5306 63.6126 24.9614 63.95 24.9614 64.4956 24.9614 64.8528 24.766 65.1108 24.5155 65.2348 24.8411 65.2994 25.1417 65.6218 25.1417 66.0187 25.1417 66.5248 24.756 66.9464 24.0046 66.9464L22.8625 66.9464ZM23.4636 65.0463 23.7992 65.0463C24.22 65.0463 24.3653 64.833 24.3653 64.5552 24.3653 64.2773 24.17 64.1335 23.8193 64.1335L23.4636 64.1335 23.4636 65.0463ZM23.4636 66.4206 23.9846 66.4206C24.3653 66.4206 24.5255 66.252 24.5255 65.984 24.5255 65.7161 24.3302 65.5722 24.0096 65.5722L23.4636 65.5722 23.4636 66.4206Z" stroke="#FFFFFF" stroke-width="1.17544" fill="#FFFFFF" transform="matrix(1.00713 0 0 1 554 76)"/><path d="M28.7481 66.9464 28.7481 65.4929 27.6009 63.6126 28.2873 63.6126 29.0036 64.8132C29.0286 64.8628 29.0587 64.952 29.0587 64.952 29.0587 64.952 29.0887 64.8678 29.1188 64.8082L29.8351 63.6126 30.5164 63.6126 29.3492 65.4929 29.3492 66.9464 28.7481 66.9464Z" stroke="#FFFFFF" stroke-width="1.17544" fill="#FFFFFF" transform="matrix(1.00713 0 0 1 554 76)"/><path d="M37.1637 66.9464 36.2871 63.6126 36.8931 63.6126 37.3992 65.5921C37.4242 65.6863 37.4392 65.8401 37.4392 65.8401 37.4392 65.8401 37.4643 65.6913 37.4843 65.5921L38.0152 63.6126 38.5362 63.6126 39.0722 65.6019C39.0923 65.6814 39.1073 65.8451 39.1073 65.8451 39.1073 65.8451 39.1273 65.6913 39.1474 65.597L39.6733 63.6126 40.2695 63.6126 39.3577 66.9464 38.8468 66.9464 38.3208 64.9571C38.2958 64.8578 38.2708 64.6495 38.2657 64.6197 38.2657 64.6594 38.2356 64.8678 38.2106 64.9571L37.6796 66.9464 37.1587 66.9464 37.1637 66.9464Z" stroke="#FFFFFF" stroke-width="1.17544" fill="#FFFFFF" transform="matrix(1.00713 0 0 1 554 76)"/><path d="M42.5894 66.9464 43.8367 63.6126 44.3377 63.6126 45.5949 66.9464 44.9337 66.9464 44.6031 65.989 43.5512 65.989 43.2205 66.9464 42.5844 66.9464 42.5894 66.9464ZM43.7365 65.4631 44.4328 65.4631 44.1322 64.5899C44.1072 64.5155 44.0821 64.4263 44.0821 64.4163 44.0821 64.4263 44.0621 64.5155 44.0371 64.5899L43.7365 65.4631Z" stroke="#FFFFFF" stroke-width="1.17544" fill="#FFFFFF" transform="matrix(1.00713 0 0 1 554 76)"/><path d="M48.4352 66.9464 48.4352 63.6126 49.0362 63.6126 49.0362 66.4206 50.2786 66.4206 50.2786 66.9464 48.4402 66.9464 48.4352 66.9464Z" stroke="#FFFFFF" stroke-width="1.17544" fill="#FFFFFF" transform="matrix(1.00713 0 0 1 554 76)"/><path d="M53.1587 66.9464 53.1587 63.6126 54.1005 63.6126C55.1524 63.6126 55.8738 64.2773 55.8738 65.2696 55.8738 66.2618 55.0973 66.9464 54.0755 66.9464L53.1587 66.9464ZM53.7599 66.4305 54.0504 66.4305C54.8618 66.4305 55.2527 65.8649 55.2527 65.2746 55.2527 64.6395 54.7918 64.1236 54.0954 64.1236L53.7599 64.1236 53.7599 66.4305Z" stroke="#FFFFFF" stroke-width="1.17544" fill="#FFFFFF" transform="matrix(1.00713 0 0 1 554 76)"/><path d="M58.6686 65.2687C58.6686 64.3063 59.3849 63.5621 60.3867 63.5621 61.3887 63.5621 62.125 64.2964 62.125 65.2736 62.125 66.251 61.3936 67.0051 60.3969 67.0051 59.4 67.0051 58.6686 66.2461 58.6686 65.2687ZM61.5039 65.2687C61.5039 64.6139 61.058 64.1078 60.3918 64.1078 59.7256 64.1078 59.2848 64.6287 59.2848 65.2736 59.2848 65.9483 59.8007 66.4644 60.3969 66.4644 61.028 66.4644 61.5039 65.9483 61.5039 65.2687Z" stroke="#FFFFFF" stroke-width="1.17544" fill="#FFFFFF" transform="matrix(1.00713 0 0 1 554 76)"/><path d="M65.0605 66.9464 65.0605 63.6126 66.2076 63.6126C66.8739 63.6126 67.3096 64.0442 67.3096 64.5999 67.3096 65.1158 66.9289 65.4879 66.4531 65.5474L67.52 66.9464 66.8037 66.9464 65.6566 65.3787 65.6566 66.9464 65.0555 66.9464 65.0605 66.9464ZM65.6617 65.1108 66.1625 65.1108C66.4981 65.1108 66.7036 64.9024 66.7036 64.5899 66.7036 64.3617 66.5031 64.1335 66.1676 64.1335L65.6617 64.1335 65.6617 65.1108Z" stroke="#FFFFFF" stroke-width="1.17544" fill="#FFFFFF" transform="matrix(1.00713 0 0 1 554 76)"/><path d="M70.3656 66.9464 70.3656 63.6126 72.0988 63.6126 72.0988 64.1335 70.9668 64.1335 70.9668 65.0662 72.0337 65.0662 72.0337 65.5871 70.9668 65.5871 70.9668 66.9464 70.3656 66.9464Z" stroke="#FFFFFF" stroke-width="1.17544" fill="#FFFFFF" transform="matrix(1.00713 0 0 1 554 76)"/><path d="M78.0947 66.9464 79.3421 63.6126 79.843 63.6126 81.1003 66.9464 80.4391 66.9464 80.1085 65.989 79.0566 65.989 78.7259 66.9464 78.0898 66.9464 78.0947 66.9464ZM79.2418 65.4631 79.9382 65.4631 79.6376 64.5899C79.6126 64.5155 79.5875 64.4263 79.5875 64.4163 79.5875 64.4263 79.5674 64.5155 79.5424 64.5899L79.2418 65.4631Z" stroke="#FFFFFF" stroke-width="1.17544" fill="#FFFFFF" transform="matrix(1.00713 0 0 1 554 76)"/><path d="M84.0657 66.1919C84.256 66.3456 84.5466 66.4548 84.7971 66.4548 85.1327 66.4548 85.2979 66.3208 85.2979 66.0678 85.2979 65.7552 84.8572 65.6263 84.5666 65.4675 84.1559 65.2592 83.7802 65.0458 83.7802 64.4654 83.7802 63.885 84.266 63.5575 84.8671 63.5575 85.1927 63.5575 85.5384 63.6468 85.8089 63.8403L85.5183 64.3017C85.338 64.1677 85.1276 64.0982 84.8622 64.0982 84.5616 64.0982 84.3913 64.257 84.3913 64.4505 84.3913 64.7829 84.767 64.887 85.1728 65.0756 85.5284 65.2393 85.9041 65.4775 85.9041 66.0281 85.9041 66.6383 85.4432 66.9955 84.7971 66.9955 84.3913 66.9955 84.0556 66.8666 83.7351 66.6185L84.0556 66.1868 84.0657 66.1919Z" stroke="#FFFFFF" stroke-width="1.17544" fill="#FFFFFF" transform="matrix(1.00713 0 0 1 554 76)"/><path d="M89.2898 66.9464 89.2898 64.1335 88.6136 64.1335 88.6136 63.6126 90.5723 63.6126 90.5723 64.1335 89.891 64.1335 89.891 66.9464 89.2898 66.9464Z" stroke="#FFFFFF" stroke-width="1.17544" fill="#FFFFFF" transform="matrix(1.00713 0 0 1 554 76)"/><path d="M93.0617 65.2687C93.0617 64.3063 93.778 63.5621 94.7798 63.5621 95.7817 63.5621 96.5181 64.2964 96.5181 65.2736 96.5181 66.251 95.7867 67.0051 94.7898 67.0051 93.7931 67.0051 93.0617 66.2461 93.0617 65.2687ZM95.8969 65.2687C95.8969 64.6139 95.4511 64.1078 94.7849 64.1078 94.1187 64.1078 93.6778 64.6287 93.6778 65.2736 93.6778 65.9483 94.1938 66.4644 94.7898 66.4644 95.4211 66.4644 95.8969 65.9483 95.8969 65.2687Z" stroke="#FFFFFF" stroke-width="1.17544" fill="#FFFFFF" transform="matrix(1.00713 0 0 1 554 76)"/><path d="M99.4535 66.9464 99.4535 63.6126 100.601 63.6126C101.267 63.6126 101.703 64.0442 101.703 64.5999 101.703 65.1158 101.322 65.4879 100.846 65.5474L101.913 66.9464 101.197 66.9464 100.05 65.3787 100.05 66.9464 99.4486 66.9464 99.4535 66.9464ZM100.055 65.1108 100.556 65.1108C100.891 65.1108 101.097 64.9024 101.097 64.5899 101.097 64.3617 100.896 64.1335 100.561 64.1335L100.055 64.1335 100.055 65.1108Z" stroke="#FFFFFF" stroke-width="1.17544" fill="#FFFFFF" transform="matrix(1.00713 0 0 1 554 76)"/><path d="M104.759 66.9464 104.759 63.6126 105.36 63.6126 105.36 66.9464 104.759 66.9464Z" stroke="#FFFFFF" stroke-width="1.17544" fill="#FFFFFF" transform="matrix(1.00713 0 0 1 554 76)"/><path d="M108.195 66.9464 109.442 63.6126 109.943 63.6126 111.2 66.9464 110.539 66.9464 110.208 65.989 109.157 65.989 108.826 66.9464 108.19 66.9464 108.195 66.9464ZM109.342 65.4631 110.038 65.4631 109.738 64.5899C109.713 64.5155 109.687 64.4263 109.687 64.4163 109.687 64.4263 109.662 64.5155 109.642 64.5899L109.342 65.4631Z" stroke="#FFFFFF" stroke-width="1.17544" fill="#FFFFFF" transform="matrix(1.00713 0 0 1 554 76)"/><path d="M117.306 66.9464 117.306 63.6126 118.248 63.6126C119.3 63.6126 120.022 64.2773 120.022 65.2696 120.022 66.2618 119.249 66.9464 118.223 66.9464L117.306 66.9464ZM117.907 66.4305 118.197 66.4305C119.01 66.4305 119.4 65.8649 119.4 65.2746 119.4 64.6395 118.939 64.1236 118.243 64.1236L117.907 64.1236 117.907 66.4305Z" stroke="#FFFFFF" stroke-width="1.17544" fill="#FFFFFF" transform="matrix(1.00713 0 0 1 554 76)"/><path d="M122.957 66.9464 122.957 63.6126 123.559 63.6126 123.559 66.9464 122.957 66.9464Z" stroke="#FFFFFF" stroke-width="1.17544" fill="#FFFFFF" transform="matrix(1.00713 0 0 1 554 76)"/><path d="M126.649 66.9464 126.649 63.6126 128.383 63.6126 128.383 64.1335 127.249 64.1335 127.249 65.0662 128.317 65.0662 128.317 65.5871 127.249 65.5871 127.249 66.9464 126.649 66.9464Z" stroke="#FFFFFF" stroke-width="1.17544" fill="#FFFFFF" transform="matrix(1.00713 0 0 1 554 76)"/><path d="M134.152 66.4151C133.866 66.7623 133.441 67.0005 132.855 67.0005 131.934 67.0005 131.172 66.3358 131.172 65.2691 131.172 64.2867 131.903 63.5575 132.86 63.5575 133.405 63.5575 133.777 63.7311 134.087 64.0635L133.706 64.4505C133.48 64.2223 133.205 64.0982 132.865 64.0982 132.249 64.0982 131.793 64.5745 131.793 65.2641 131.793 66.0331 132.293 66.4548 132.86 66.4548 133.236 66.4548 133.526 66.301 133.777 66.0331L134.152 66.4102 134.152 66.4151Z" stroke="#FFFFFF" stroke-width="1.17544" fill="#FFFFFF" transform="matrix(1.00713 0 0 1 554 76)"/></g></svg>